<svg id="Layer_1" data-name="Layer 1" xmlns="http://www.w3.org/2000/svg" viewBox="0 0 98.03 30.38"><defs><style>.cls-1,.cls-3{fill:#4d7175;}.cls-2,.cls-3{font-size:14px;font-family:ArialRoundedMTBold, Arial Rounded MT Bold;}</style></defs><path d="M23.72,9.12v2.45a2.69,2.69,0,0,1-.09.78,1.13,1.13,0,0,1-.34.53,3.22,3.22,0,0,1-.62.46,10,10,0,0,1-2.13.91,8.3,8.3,0,0,1-2.23.29,7,7,0,0,1-2.56-.45,5.51,5.51,0,0,1-2-1.32,6,6,0,0,1-1.25-2.1,8.18,8.18,0,0,1-.44-2.75,8.23,8.23,0,0,1,.43-2.73,5.58,5.58,0,0,1,1.24-2.1,5.34,5.34,0,0,1,2-1.32,7.22,7.22,0,0,1,2.67-.46,6.36,6.36,0,0,1,2.18.34,4.71,4.71,0,0,1,1.54.87,3.92,3.92,0,0,1,.89,1.11,2.34,2.34,0,0,1,.3,1A1.14,1.14,0,0,1,23,5.5a1.12,1.12,0,0,1-.82.35,1.12,1.12,0,0,1-.93-.5,10.37,10.37,0,0,0-.77-1.14,2.57,2.57,0,0,0-.85-.64,3.07,3.07,0,0,0-1.37-.26,3.58,3.58,0,0,0-1.53.31,3,3,0,0,0-1.15.9A4.07,4.07,0,0,0,14.85,6a6.59,6.59,0,0,0-.26,1.89,5.35,5.35,0,0,0,1,3.47,3.34,3.34,0,0,0,2.75,1.21,5.64,5.64,0,0,0,1.61-.23,7.49,7.49,0,0,0,1.52-.68V9.55H19.55a1.94,1.94,0,0,1-1-.22.8.8,0,0,1-.36-.74.93.93,0,0,1,.3-.71,1.08,1.08,0,0,1,.8-.28h2.8a3.11,3.11,0,0,1,.87.1,1,1,0,0,1,.58.42A1.83,1.83,0,0,1,23.72,9.12Z" transform="translate(-1.67 -0.38)"/><path d="M32.25,10.28H27.81a3.38,3.38,0,0,0,.31,1.43,2.22,2.22,0,0,0,.81.94A2.07,2.07,0,0,0,30,13a2.45,2.45,0,0,0,.74-.1,2.48,2.48,0,0,0,.66-.31,6.9,6.9,0,0,0,.58-.46l.69-.67a.73.73,0,0,1,.5-.15.76.76,0,0,1,.56.2A.71.71,0,0,1,34,12a1.62,1.62,0,0,1-.24.75,3.07,3.07,0,0,1-.73.83,4.25,4.25,0,0,1-1.22.66,5.17,5.17,0,0,1-1.69.26,4.41,4.41,0,0,1-3.4-1.31,5,5,0,0,1-1.22-3.55,6.15,6.15,0,0,1,.3-2,4.43,4.43,0,0,1,.87-1.55,3.87,3.87,0,0,1,1.42-1,4.85,4.85,0,0,1,1.86-.35,4.25,4.25,0,0,1,2.28.59A3.81,3.81,0,0,1,33.65,7a4.2,4.2,0,0,1,.47,1.9c0,.6-.16,1-.49,1.16A2.91,2.91,0,0,1,32.25,10.28ZM27.81,8.93h4.12A3,3,0,0,0,31.3,7.1a1.94,1.94,0,0,0-2.83,0A3.17,3.17,0,0,0,27.81,8.93Z" transform="translate(-1.67 -0.38)"/><path d="M38.1,6.17v.29a3.91,3.91,0,0,1,1.3-1.22A3.37,3.37,0,0,1,41,4.85a3.15,3.15,0,0,1,1.6.41A2.59,2.59,0,0,1,43.7,6.42a3,3,0,0,1,.29,1,10.82,10.82,0,0,1,.07,1.29v4.43a1.6,1.6,0,0,1-.32,1.08,1,1,0,0,1-.81.37,1,1,0,0,1-.82-.37,1.64,1.64,0,0,1-.32-1.08v-4a4.07,4.07,0,0,0-.31-1.8,1.25,1.25,0,0,0-1.24-.63,1.84,1.84,0,0,0-1.11.38,2.24,2.24,0,0,0-.73,1,7.88,7.88,0,0,0-.16,2v3a1.63,1.63,0,0,1-.32,1.09,1.07,1.07,0,0,1-.83.36,1,1,0,0,1-.81-.37A1.64,1.64,0,0,1,36,13.09V6.2a1.52,1.52,0,0,1,.28-1A1,1,0,0,1,37,4.85a1,1,0,0,1,.54.15,1.09,1.09,0,0,1,.39.45A1.54,1.54,0,0,1,38.1,6.17Z" transform="translate(-1.67 -0.38)"/><path d="M52.65,10.28H48.21a3.38,3.38,0,0,0,.31,1.43,2.29,2.29,0,0,0,.81.94,2.07,2.07,0,0,0,1.11.31,2.45,2.45,0,0,0,.74-.1,2.48,2.48,0,0,0,.66-.31,6.9,6.9,0,0,0,.58-.46l.69-.67a.73.73,0,0,1,.5-.15.76.76,0,0,1,.56.2.71.71,0,0,1,.22.57,1.62,1.62,0,0,1-.24.75,3.07,3.07,0,0,1-.73.83,4.25,4.25,0,0,1-1.22.66,5.17,5.17,0,0,1-1.69.26,4.41,4.41,0,0,1-3.4-1.31,5,5,0,0,1-1.22-3.55,6.15,6.15,0,0,1,.3-2,4.43,4.43,0,0,1,.87-1.55,3.87,3.87,0,0,1,1.42-1,4.85,4.85,0,0,1,1.86-.35,4.25,4.25,0,0,1,2.28.59A3.81,3.81,0,0,1,54.05,7a4.2,4.2,0,0,1,.47,1.9c0,.6-.16,1-.49,1.16A2.91,2.91,0,0,1,52.65,10.28ZM48.21,8.93h4.12A3,3,0,0,0,51.7,7.1a1.94,1.94,0,0,0-2.83,0A3.17,3.17,0,0,0,48.21,8.93Z" transform="translate(-1.67 -0.38)"/><path d="M55,23.17a3.9,3.9,0,0,1-.57,2.09,3.81,3.81,0,0,1-1.66,1.45,6,6,0,0,1-2.61.52,5.68,5.68,0,0,1-3-.71,4.05,4.05,0,0,1-1.35-1.38,3.19,3.19,0,0,1-.52-1.67,1.16,1.16,0,0,1,.31-.81,1,1,0,0,1,.79-.33.89.89,0,0,1,.66.26,2,2,0,0,1,.47.78,5.39,5.39,0,0,0,.5,1,2,2,0,0,0,.76.67,2.69,2.69,0,0,0,1.29.27,2.8,2.8,0,0,0,1.78-.54,1.63,1.63,0,0,0,.69-1.34,1.48,1.48,0,0,0-.37-1,2.37,2.37,0,0,0-1-.61,13.82,13.82,0,0,0-1.57-.44,11.3,11.3,0,0,1-2.19-.76A3.63,3.63,0,0,1,46,19.43a3.11,3.11,0,0,1-.52-1.85,3.27,3.27,0,0,1,.55-1.88,3.43,3.43,0,0,1,1.59-1.26A6.29,6.29,0,0,1,50.1,14a5.87,5.87,0,0,1,1.94.29,4.15,4.15,0,0,1,1.36.78,3.14,3.14,0,0,1,.79,1,2.43,2.43,0,0,1,.25,1,1.27,1.27,0,0,1-.31.84,1,1,0,0,1-.78.37.88.88,0,0,1-.64-.22,3.05,3.05,0,0,1-.48-.73,3.21,3.21,0,0,0-.8-1.13,2.26,2.26,0,0,0-1.5-.41,2.53,2.53,0,0,0-1.54.44,1.3,1.3,0,0,0-.58,1.06A1.09,1.09,0,0,0,48,18a1.82,1.82,0,0,0,.54.48,4.37,4.37,0,0,0,.71.31c.24.08.63.19,1.18.33a19.21,19.21,0,0,1,1.87.56,5.41,5.41,0,0,1,1.42.74,2.9,2.9,0,0,1,.91,1.11A3.64,3.64,0,0,1,55,23.17Z" transform="translate(-1.67 -0.38)"/><path d="M58.06,16.43a1.16,1.16,0,0,1-.81-.3,1.09,1.09,0,0,1-.34-.87,1.1,1.1,0,0,1,.34-.83,1.13,1.13,0,0,1,.81-.33,1.16,1.16,0,0,1,.78.3,1.08,1.08,0,0,1,.34.86,1.11,1.11,0,0,1-.33.86A1.13,1.13,0,0,1,58.06,16.43Zm1.12,2.47v6.88a1.6,1.6,0,0,1-.33,1.09,1,1,0,0,1-.82.36,1,1,0,0,1-.81-.37,1.64,1.64,0,0,1-.31-1.08V19a1.57,1.57,0,0,1,.31-1.07,1,1,0,0,1,.81-.36,1,1,0,0,1,.82.36A1.42,1.42,0,0,1,59.18,18.9Z" transform="translate(-1.67 -0.38)"/><path d="M63.62,18.88v.29A4.4,4.4,0,0,1,65,18a3.11,3.11,0,0,1,1.56-.39,3.49,3.49,0,0,1,1.93.57,3.83,3.83,0,0,1,1.39,1.66,6,6,0,0,1,.51,2.58,6.49,6.49,0,0,1-.29,2,4.84,4.84,0,0,1-.81,1.55,3.77,3.77,0,0,1-1.22,1,3.51,3.51,0,0,1-1.51.33,3.06,3.06,0,0,1-1.63-.41,4.7,4.7,0,0,1-1.26-1.2V29.2c0,1-.36,1.57-1.09,1.57a.86.86,0,0,1-.85-.41,2.62,2.62,0,0,1-.21-1.18V18.9a1.53,1.53,0,0,1,.29-1,1,1,0,0,1,.77-.34,1,1,0,0,1,.79.35A1.46,1.46,0,0,1,63.62,18.88Zm4.45,3.46a4.43,4.43,0,0,0-.28-1.62,2.27,2.27,0,0,0-.76-1A1.7,1.7,0,0,0,66,19.32a2,2,0,0,0-1.59.78,3.51,3.51,0,0,0-.64,2.29,3.4,3.4,0,0,0,.64,2.21,1.94,1.94,0,0,0,1.59.79A1.69,1.69,0,0,0,67,25a2.35,2.35,0,0,0,.78-1A4.34,4.34,0,0,0,68.07,22.34Z" transform="translate(-1.67 -0.38)"/><path d="M78.5,23H74.06a3.38,3.38,0,0,0,.31,1.43,2.15,2.15,0,0,0,.81.94,2,2,0,0,0,1.11.31,2.45,2.45,0,0,0,.74-.1,2.42,2.42,0,0,0,.65-.31,7.09,7.09,0,0,0,.59-.46l.69-.66a.68.68,0,0,1,.5-.16.8.8,0,0,1,.56.2.74.74,0,0,1,.22.57,1.62,1.62,0,0,1-.24.75,3.09,3.09,0,0,1-.73.83,3.93,3.93,0,0,1-1.22.66,5.19,5.19,0,0,1-1.7.26A4.39,4.39,0,0,1,73,25.92a5,5,0,0,1-1.21-3.55,6.19,6.19,0,0,1,.3-2,4.43,4.43,0,0,1,.87-1.55,3.79,3.79,0,0,1,1.42-1,4.85,4.85,0,0,1,1.86-.34,4.21,4.21,0,0,1,2.28.59,3.86,3.86,0,0,1,1.43,1.52,4.2,4.2,0,0,1,.47,1.9c0,.6-.16,1-.49,1.17A3.05,3.05,0,0,1,78.5,23Zm-4.44-1.35h4.11a3,3,0,0,0-.62-1.83,1.86,1.86,0,0,0-1.44-.61,1.78,1.78,0,0,0-1.39.62A3.19,3.19,0,0,0,74.06,21.62Z" transform="translate(-1.67 -0.38)"/><path d="M89.59,24.12a3,3,0,0,1-.46,1.68,2.76,2.76,0,0,1-1.35,1.07,5.83,5.83,0,0,1-2.17.36,5.11,5.11,0,0,1-2.1-.39,3.11,3.11,0,0,1-1.29-1,2.11,2.11,0,0,1-.41-1.19,1,1,0,0,1,.26-.67.94.94,0,0,1,.68-.28.74.74,0,0,1,.55.19,2.24,2.24,0,0,1,.36.51,2.46,2.46,0,0,0,.84.95,2.38,2.38,0,0,0,1.32.32,1.86,1.86,0,0,0,1.12-.32.91.91,0,0,0,.44-.73,1,1,0,0,0-.46-.92,5.68,5.68,0,0,0-1.49-.55,11.13,11.13,0,0,1-1.91-.64,3.12,3.12,0,0,1-1.17-.88,2.08,2.08,0,0,1-.44-1.36,2.47,2.47,0,0,1,.4-1.35,2.92,2.92,0,0,1,1.21-1,4.39,4.39,0,0,1,1.91-.38,6,6,0,0,1,1.59.2,3.83,3.83,0,0,1,1.17.51,2.42,2.42,0,0,1,.71.72,1.37,1.37,0,0,1,.25.76.94.94,0,0,1-.26.68,1.05,1.05,0,0,1-.75.26.87.87,0,0,1-.59-.21,3.71,3.71,0,0,1-.56-.63,2.16,2.16,0,0,0-.61-.56,1.83,1.83,0,0,0-.95-.21,1.73,1.73,0,0,0-1,.28A.81.81,0,0,0,84,20a.76.76,0,0,0,.3.62,2.35,2.35,0,0,0,.81.39c.34.11.8.24,1.39.39a7.25,7.25,0,0,1,1.73.64,2.87,2.87,0,0,1,1,.89A2,2,0,0,1,89.59,24.12Z" transform="translate(-1.67 -0.38)"/><path class="cls-1" d="M23.38,8.33v2.46a2.78,2.78,0,0,1-.09.78,1.31,1.31,0,0,1-.33.53,3.66,3.66,0,0,1-.63.45,9.59,9.59,0,0,1-2.13.92,8.24,8.24,0,0,1-2.23.29,7,7,0,0,1-2.56-.46,5.35,5.35,0,0,1-2-1.32,5.83,5.83,0,0,1-1.25-2.09,8.22,8.22,0,0,1-.44-2.75,8.4,8.4,0,0,1,.43-2.73A5.64,5.64,0,0,1,13.43,2.3a5.46,5.46,0,0,1,2-1.32A7.49,7.49,0,0,1,18.11.52a6.29,6.29,0,0,1,2.17.35,4.61,4.61,0,0,1,1.54.87,3.6,3.6,0,0,1,.89,1.1,2.34,2.34,0,0,1,.3,1,1.16,1.16,0,0,1-1.17,1.18,1,1,0,0,1-.51-.13,1.12,1.12,0,0,1-.41-.37,11.42,11.42,0,0,0-.78-1.13,2.49,2.49,0,0,0-.85-.65,3.19,3.19,0,0,0-1.37-.26,3.58,3.58,0,0,0-1.53.31,3.25,3.25,0,0,0-1.15.9,4.07,4.07,0,0,0-.73,1.44,6.72,6.72,0,0,0-.25,1.9,5.38,5.38,0,0,0,1,3.46A3.35,3.35,0,0,0,18,11.75a5.27,5.27,0,0,0,1.61-.24,8,8,0,0,0,1.52-.67V8.76H19.21a1.94,1.94,0,0,1-1-.22.79.79,0,0,1-.36-.74.91.91,0,0,1,.3-.7,1.1,1.1,0,0,1,.8-.28h2.8a3.67,3.67,0,0,1,.88.09,1,1,0,0,1,.57.43A1.77,1.77,0,0,1,23.38,8.33Z" transform="translate(-1.67 -0.38)"/><path class="cls-1" d="M31.91,9.5H27.47a3.27,3.27,0,0,0,.32,1.43,2.23,2.23,0,0,0,.8.93,2.08,2.08,0,0,0,1.11.32,3,3,0,0,0,.75-.1,2.61,2.61,0,0,0,.65-.32,4.34,4.34,0,0,0,.58-.46q.27-.24.69-.66a.7.7,0,0,1,.5-.16.84.84,0,0,1,.57.2.77.77,0,0,1,.21.57,1.62,1.62,0,0,1-.24.76,2.88,2.88,0,0,1-.73.82,3.82,3.82,0,0,1-1.22.66,4.87,4.87,0,0,1-1.69.27,4.41,4.41,0,0,1-3.4-1.31,5,5,0,0,1-1.21-3.56,6.54,6.54,0,0,1,.29-2,4.54,4.54,0,0,1,.88-1.55,3.75,3.75,0,0,1,1.41-1,4.85,4.85,0,0,1,1.86-.34,4.25,4.25,0,0,1,2.28.59,3.79,3.79,0,0,1,1.43,1.52,4.11,4.11,0,0,1,.47,1.9c0,.6-.16,1-.49,1.17A2.86,2.86,0,0,1,31.91,9.5ZM27.47,8.14h4.12A3,3,0,0,0,31,6.31a1.84,1.84,0,0,0-1.43-.6,1.76,1.76,0,0,0-1.39.61A3.13,3.13,0,0,0,27.47,8.14Z" transform="translate(-1.67 -0.38)"/><path class="cls-1" d="M37.76,5.38v.29a3.9,3.9,0,0,1,1.31-1.21,3.33,3.33,0,0,1,1.63-.39,3.11,3.11,0,0,1,1.61.41,2.52,2.52,0,0,1,1,1.16,2.71,2.71,0,0,1,.29.94,9.23,9.23,0,0,1,.07,1.29v4.44a1.64,1.64,0,0,1-.31,1.08,1.08,1.08,0,0,1-1.64,0,1.63,1.63,0,0,1-.31-1.07v-4a4.28,4.28,0,0,0-.31-1.8,1.27,1.27,0,0,0-1.25-.62,1.73,1.73,0,0,0-1.1.38,2.08,2.08,0,0,0-.73,1,7.85,7.85,0,0,0-.17,2v3a1.6,1.6,0,0,1-.32,1.08,1.06,1.06,0,0,1-.83.37,1,1,0,0,1-.8-.38,1.63,1.63,0,0,1-.32-1.07V5.42a1.57,1.57,0,0,1,.28-1,1,1,0,0,1,.78-.33,1.09,1.09,0,0,1,.54.14,1,1,0,0,1,.38.45A1.59,1.59,0,0,1,37.76,5.38Z" transform="translate(-1.67 -0.38)"/><path class="cls-1" d="M52.31,9.5H47.88a3.13,3.13,0,0,0,.31,1.43,2.23,2.23,0,0,0,.8.93,2.08,2.08,0,0,0,1.11.32,2.9,2.9,0,0,0,.75-.1,2.61,2.61,0,0,0,.65-.32,4.34,4.34,0,0,0,.58-.46q.27-.24.69-.66a.7.7,0,0,1,.5-.16.84.84,0,0,1,.57.2.77.77,0,0,1,.21.57,1.62,1.62,0,0,1-.24.76,2.88,2.88,0,0,1-.73.82,3.82,3.82,0,0,1-1.22.66,4.87,4.87,0,0,1-1.69.27,4.41,4.41,0,0,1-3.4-1.31,5,5,0,0,1-1.21-3.56,6.24,6.24,0,0,1,.3-2,4.36,4.36,0,0,1,.87-1.55,3.75,3.75,0,0,1,1.41-1A4.85,4.85,0,0,1,50,4.05a4.31,4.31,0,0,1,2.29.59,3.76,3.76,0,0,1,1.42,1.52,4.11,4.11,0,0,1,.47,1.9c0,.6-.16,1-.49,1.17A2.86,2.86,0,0,1,52.31,9.5ZM47.88,8.14H52a3,3,0,0,0-.63-1.83,1.84,1.84,0,0,0-1.43-.6,1.76,1.76,0,0,0-1.39.61A3.06,3.06,0,0,0,47.88,8.14Z" transform="translate(-1.67 -0.38)"/><path class="cls-1" d="M54.64,22.39a3.77,3.77,0,0,1-2.24,3.53,6,6,0,0,1-2.6.53,5.6,5.6,0,0,1-3-.72,4.11,4.11,0,0,1-1.35-1.37A3.22,3.22,0,0,1,45,22.68a1.12,1.12,0,0,1,.31-.8,1,1,0,0,1,.8-.34.93.93,0,0,1,.66.26,2.2,2.2,0,0,1,.46.78,4.85,4.85,0,0,0,.5,1,2.09,2.09,0,0,0,.76.68,2.69,2.69,0,0,0,1.29.26A2.77,2.77,0,0,0,51.51,24a1.65,1.65,0,0,0,.69-1.34,1.46,1.46,0,0,0-.37-1,2.46,2.46,0,0,0-1-.6q-.59-.21-1.56-.45a11.22,11.22,0,0,1-2.2-.75,3.63,3.63,0,0,1-1.41-1.18,3.24,3.24,0,0,1-.52-1.86,3.32,3.32,0,0,1,.55-1.87,3.56,3.56,0,0,1,1.59-1.27,6.29,6.29,0,0,1,2.44-.44,5.71,5.71,0,0,1,2,.3,4,4,0,0,1,1.35.77,3.28,3.28,0,0,1,.79,1,2.4,2.4,0,0,1,.25,1,1.24,1.24,0,0,1-.31.83,1,1,0,0,1-.78.37.86.86,0,0,1-.64-.22,2.86,2.86,0,0,1-.48-.73,3.17,3.17,0,0,0-.8-1.13,2.23,2.23,0,0,0-1.49-.4,2.45,2.45,0,0,0-1.54.44,1.29,1.29,0,0,0-.59,1.06,1.14,1.14,0,0,0,.2.66,1.62,1.62,0,0,0,.55.48,3.57,3.57,0,0,0,.7.31c.24.08.64.19,1.19.34a16.58,16.58,0,0,1,1.86.56,5.41,5.41,0,0,1,1.42.74,3.07,3.07,0,0,1,.92,1.1A3.69,3.69,0,0,1,54.64,22.39Z" transform="translate(-1.67 -0.38)"/><path class="cls-1" d="M57.72,15.65a1.12,1.12,0,0,1-.81-.31,1.21,1.21,0,0,1,0-1.69,1.13,1.13,0,0,1,.8-.33,1.16,1.16,0,0,1,.78.3,1.05,1.05,0,0,1,.34.86,1.12,1.12,0,0,1-.33.86A1.11,1.11,0,0,1,57.72,15.65Zm1.12,2.46V25a1.62,1.62,0,0,1-.32,1.08,1.07,1.07,0,0,1-.82.37,1,1,0,0,1-.82-.38A1.68,1.68,0,0,1,56.57,25V18.18a1.6,1.6,0,0,1,.31-1.06,1,1,0,0,1,.82-.36,1.06,1.06,0,0,1,.82.36A1.44,1.44,0,0,1,58.84,18.11Z" transform="translate(-1.67 -0.38)"/><path class="cls-1" d="M63.28,18.09v.29a4.66,4.66,0,0,1,1.33-1.22,3.22,3.22,0,0,1,1.56-.38,3.45,3.45,0,0,1,1.93.56A3.84,3.84,0,0,1,69.5,19,6.06,6.06,0,0,1,70,21.58a6.55,6.55,0,0,1-.3,2,4.42,4.42,0,0,1-.81,1.54,3.43,3.43,0,0,1-1.22,1,3.51,3.51,0,0,1-1.51.34A3.08,3.08,0,0,1,64.54,26a4.91,4.91,0,0,1-1.26-1.21v3.58c0,1.05-.36,1.57-1.09,1.57a.87.87,0,0,1-.85-.4,2.84,2.84,0,0,1-.2-1.19V18.11a1.57,1.57,0,0,1,.28-1,1,1,0,0,1,.77-.33,1,1,0,0,1,.79.34A1.46,1.46,0,0,1,63.28,18.09Zm4.45,3.47a4.36,4.36,0,0,0-.27-1.62,2.39,2.39,0,0,0-.77-1,1.75,1.75,0,0,0-1.07-.36,2,2,0,0,0-1.59.78,3.48,3.48,0,0,0-.64,2.28A3.43,3.43,0,0,0,64,23.82a2,2,0,0,0,1.59.79,1.81,1.81,0,0,0,1-.35,2.39,2.39,0,0,0,.77-1A4.38,4.38,0,0,0,67.73,21.56Z" transform="translate(-1.67 -0.38)"/><path class="cls-1" d="M78.16,22.19H73.72A3.38,3.38,0,0,0,74,23.62a2.32,2.32,0,0,0,.81.93,2.08,2.08,0,0,0,1.11.32,2.82,2.82,0,0,0,.74-.1,2.51,2.51,0,0,0,.66-.32,4.34,4.34,0,0,0,.58-.46q.27-.24.69-.66a.75.75,0,0,1,.5-.16.8.8,0,0,1,.56.2.74.74,0,0,1,.22.57,1.62,1.62,0,0,1-.24.76,3.22,3.22,0,0,1-.73.83,4,4,0,0,1-1.22.65,4.91,4.91,0,0,1-1.69.27,4.41,4.41,0,0,1-3.4-1.31,5,5,0,0,1-1.22-3.56,6.24,6.24,0,0,1,.3-2,4.25,4.25,0,0,1,.88-1.54,3.89,3.89,0,0,1,1.41-1,5,5,0,0,1,1.86-.34,4.25,4.25,0,0,1,2.28.59,3.79,3.79,0,0,1,1.43,1.52A4.14,4.14,0,0,1,80,20.76c0,.6-.16,1-.49,1.16A2.91,2.91,0,0,1,78.16,22.19Zm-4.44-1.36h4.12A3,3,0,0,0,77.21,19a1.81,1.81,0,0,0-1.43-.61,1.79,1.79,0,0,0-1.4.61A3.19,3.19,0,0,0,73.72,20.83Z" transform="translate(-1.67 -0.38)"/><path class="cls-1" d="M89.25,23.33A3,3,0,0,1,88.79,25a2.75,2.75,0,0,1-1.35,1.06,5.59,5.59,0,0,1-2.17.37,5,5,0,0,1-2.1-.4,3,3,0,0,1-1.28-1,2,2,0,0,1-.42-1.18.92.92,0,0,1,.27-.67.86.86,0,0,1,.67-.28.78.78,0,0,1,.55.18,1.82,1.82,0,0,1,.36.52,2.72,2.72,0,0,0,.84.95,2.42,2.42,0,0,0,1.33.31,1.78,1.78,0,0,0,1.11-.32.88.88,0,0,0,.44-.73,1,1,0,0,0-.45-.91,5.34,5.34,0,0,0-1.49-.55,12.79,12.79,0,0,1-1.91-.64A3.17,3.17,0,0,1,82,20.86a2.12,2.12,0,0,1-.44-1.35A2.51,2.51,0,0,1,82,18.15a2.81,2.81,0,0,1,1.2-1,4.33,4.33,0,0,1,1.92-.38,6,6,0,0,1,1.58.19,4,4,0,0,1,1.17.51,2.73,2.73,0,0,1,.72.72,1.47,1.47,0,0,1,.24.77.92.92,0,0,1-.26.67,1,1,0,0,1-.74.26.88.88,0,0,1-.6-.21,4.2,4.2,0,0,1-.56-.63,2,2,0,0,0-.61-.55,2.15,2.15,0,0,0-2,.06.81.81,0,0,0-.4.69.76.76,0,0,0,.29.61,2.55,2.55,0,0,0,.81.4c.34.1.8.23,1.4.38a7.13,7.13,0,0,1,1.72.65,2.91,2.91,0,0,1,1,.89A2,2,0,0,1,89.25,23.33Z" transform="translate(-1.67 -0.38)"/><text class="cls-2" transform="translate(89.87 26.76)">&gt;</text><text class="cls-3" transform="translate(89.32 26.13)">&gt;</text><text class="cls-2" transform="translate(0.22 12.75)">&lt;</text><text class="cls-3" transform="translate(0 12.1)">&lt;</text><text class="cls-2" transform="translate(54.69 13.75)">&gt;</text><text class="cls-3" transform="translate(54.67 12.79)">&gt;</text><text class="cls-2" transform="translate(29.91 26.76)">&lt;/</text><text class="cls-3" transform="translate(29.67 25.79)">&lt;/</text></svg>